# xmcd
#
# Track frame offsets:
# 150
# 13720
# 28432
# 43090
# 56735
# 70285
# 84370
# 98257
# 110297
# 123732
# 137805
# 151697
# 165220
# 178155
# 191740
# 204702
# 219397
# 232457
# 245175
# 259005
# 271590
# 286007
# 299827
# 313155
# 326557
# 340742
#
# Disc length: 4727 seconds
#
# Revision: 0
# Processed by: cddbd v1.4PL0 Copyright (c) Steve Scherf et al.
# Submitted via: Audion 3.0.2 (http://www.panic.com/audion/)
#
DISCID=8b12751a
DTITLE=Josh White - Josh White - Volume 1 (1929-33)
DYEAR=1900
DGENRE=
TTITLE0=Wang Wang Harmonica Blues (Carver Boys)
TTITLE1=Sisco Harmonica Blues (Carver Boys)
TTITLE2=Black and Evil Blues
TTITLE3=Little Brother Blues
TTITLE4=Baby, Won't You Doodle-Doo-Doo
TTITLE5=Howling Wolf Blues
TTITLE6=Crying Blues
TTITLE7=Things About Coming My Way
TTITLE8=Bad Depression Blues
TTITLE9=Greenville Sheik
TTITLE10=Good Gal
TTITLE11=High Brown Cheate
TTITLE12=Double Crossing Woman
TTITLE13=So Sweet, So Sweet
TTITLE14=Lazy Black Snake Blues
TTITLE15=Downhearted Man Blues
TTITLE16=Low Cotton
TTITLE17=Blood Red River
TTITLE18=Jesus Gonna Make Up My Dying Bed
TTITLE19=Motherless Children
TTITLE20=Pure Religion Hallilu (take 1)
TTITLE21=Pure Religion Hallilu (take 2)
TTITLE22=I Don't Intend To Die In Egyptland
TTITLE23=This Heart Of Mine
TTITLE24=There's A Man Goin' Around Taking Names
TTITLE25=Lay Some Flowers On My Grave
EXTD=
EXTT0=
EXTT1=
EXTT2=
EXTT3=
EXTT4=
EXTT5=
EXTT6=
EXTT7=
EXTT8=
EXTT9=
EXTT10=
EXTT11=
EXTT12=
EXTT13=
EXTT14=
EXTT15=
EXTT16=
EXTT17=
EXTT18=
EXTT19=
EXTT20=
EXTT21=
EXTT22=
EXTT23=
EXTT24=
EXTT25=
PLAYORDER=
